<?xml version="1.0" encoding="UTF-8" standalone="no"?><!DOCTYPE svg PUBLIC "-//W3C//DTD SVG 1.1//EN"
        "http://www.w3.org/Graphics/SVG/1.1/DTD/svg11.dtd">
<svg width="100%" height="100%" viewBox="0 0 83 43" version="1.1" xmlns="http://www.w3.org/2000/svg"
     xmlns:xlink="http://www.w3.org/1999/xlink" xml:space="preserve" xmlns:serif="http://www.serif.com/"
     style="fill-rule:evenodd;clip-rule:evenodd;stroke-linejoin:round;stroke-miterlimit:2;"><rect id="Artboard1" x="0" y="0" width="82.06" height="42.1" style="fill:none;"/>
    <g><path d="M19.814,25.003c0.208,0 0.372,0.096 0.492,0.288c0.12,0.192 0.18,0.456 0.18,0.792c0,0.64 -0.152,1.136 -0.456,1.488c-0.656,0.8 -1.376,1.484 -2.16,2.052c-0.784,0.568 -1.56,0.852 -2.328,0.852c-1.216,0 -2.144,-0.712 -2.784,-2.136c-0.672,0.848 -1.26,1.416 -1.764,1.704c-0.504,0.288 -1.092,0.432 -1.764,0.432c-0.976,0 -1.78,-0.364 -2.412,-1.092c-0.632,-0.728 -0.948,-1.676 -0.948,-2.844c0,-1.28 0.272,-2.468 0.816,-3.564c0.544,-1.096 1.292,-1.992 2.244,-2.688c0.952,-0.696 2.02,-1.108 3.204,-1.236c0.304,-3.104 0.884,-5.756 1.74,-7.956c0.856,-2.2 1.98,-3.3 3.372,-3.3c0.688,0 1.26,0.312 1.716,0.936c0.456,0.624 0.684,1.568 0.684,2.832c0,1.792 -0.44,3.888 -1.32,6.288c-0.88,2.4 -2.056,4.864 -3.528,7.392c0.064,0.928 0.204,1.592 0.42,1.992c0.216,0.4 0.492,0.6 0.828,0.6c0.432,0 0.872,-0.192 1.32,-0.576c0.448,-0.384 1.048,-1.024 1.8,-1.92c0.192,-0.224 0.408,-0.336 0.648,-0.336Zm-2.832,-14.856c-0.304,0 -0.608,0.54 -0.912,1.62c-0.304,1.08 -0.564,2.492 -0.78,4.236c-0.216,1.744 -0.372,3.568 -0.468,5.472c1.792,-3.904 2.688,-7.04 2.688,-9.408c0,-0.608 -0.052,-1.08 -0.156,-1.416c-0.104,-0.336 -0.228,-0.504 -0.372,-0.504Zm-6.912,17.904c0.304,0 0.608,-0.124 0.912,-0.372c0.304,-0.248 0.688,-0.708 1.152,-1.38c-0.16,-0.864 -0.24,-1.832 -0.24,-2.904c0,-0.384 0.016,-1.008 0.048,-1.872c-0.88,0.272 -1.612,0.86 -2.196,1.764c-0.584,0.904 -0.876,1.908 -0.876,3.012c0,1.168 0.4,1.752 1.2,1.752Z" style="fill:#fff;fill-rule:nonzero;"/>
        <path d="M21.686,17.587c-0.672,0 -1.176,-0.156 -1.512,-0.468c-0.336,-0.312 -0.504,-0.748 -0.504,-1.308c0,-0.56 0.22,-1.028 0.66,-1.404c0.44,-0.376 0.988,-0.564 1.644,-0.564c0.592,0 1.072,0.144 1.44,0.432c0.368,0.288 0.552,0.696 0.552,1.224c0,0.64 -0.208,1.148 -0.624,1.524c-0.416,0.376 -0.968,0.564 -1.656,0.564Zm-0.192,12.888c-1.04,0 -1.796,-0.368 -2.268,-1.104c-0.472,-0.736 -0.708,-1.712 -0.708,-2.928c0,-0.72 0.092,-1.644 0.276,-2.772c0.184,-1.128 0.42,-2.18 0.708,-3.156c0.144,-0.512 0.336,-0.864 0.576,-1.056c0.24,-0.192 0.624,-0.288 1.152,-0.288c0.816,0 1.224,0.272 1.224,0.816c0,0.4 -0.152,1.328 -0.456,2.784c-0.384,1.76 -0.576,2.952 -0.576,3.576c0,0.48 0.064,0.848 0.192,1.104c0.128,0.256 0.344,0.384 0.648,0.384c0.288,0 0.648,-0.2 1.08,-0.6c0.432,-0.4 1.008,-1.032 1.728,-1.896c0.192,-0.224 0.408,-0.336 0.648,-0.336c0.208,0 0.372,0.096 0.492,0.288c0.12,0.192 0.18,0.456 0.18,0.792c0,0.64 -0.152,1.136 -0.456,1.488c-1.584,1.936 -3.064,2.904 -4.44,2.904Z"
              style="fill:#fff;fill-rule:nonzero;"/>
        <path d="M35.15,25.003c0.208,0 0.372,0.096 0.492,0.288c0.12,0.192 0.18,0.456 0.18,0.792c0,0.64 -0.152,1.136 -0.456,1.488c-0.592,0.72 -1.428,1.384 -2.508,1.992c-1.08,0.608 -2.236,0.912 -3.468,0.912c-1.68,0 -2.984,-0.456 -3.912,-1.368c-0.928,-0.912 -1.392,-2.16 -1.392,-3.744c0,-1.104 0.232,-2.132 0.696,-3.084c0.464,-0.952 1.108,-1.708 1.932,-2.268c0.824,-0.56 1.756,-0.84 2.796,-0.84c0.928,0 1.672,0.276 2.232,0.828c0.56,0.552 0.84,1.3 0.84,2.244c0,1.104 -0.396,2.052 -1.188,2.844c-0.792,0.792 -2.132,1.42 -4.02,1.884c0.4,0.736 1.16,1.104 2.28,1.104c0.72,0 1.54,-0.252 2.46,-0.756c0.92,-0.504 1.716,-1.164 2.388,-1.98c0.192,-0.224 0.408,-0.336 0.648,-0.336Zm-6.048,-3.48c-0.592,0 -1.092,0.344 -1.5,1.032c-0.408,0.688 -0.612,1.52 -0.612,2.496l0,0.048c0.944,-0.224 1.688,-0.56 2.232,-1.008c0.544,-0.448 0.816,-0.968 0.816,-1.56c0,-0.304 -0.084,-0.548 -0.252,-0.732c-0.168,-0.184 -0.396,-0.276 -0.684,-0.276Zm-0.768,14.304c-0.672,0 -1.176,-0.156 -1.512,-0.468c-0.336,-0.312 -0.504,-0.748 -0.504,-1.308c0,-0.56 0.22,-1.028 0.66,-1.404c0.44,-0.376 0.988,-0.564 1.644,-0.564c0.592,0 1.072,0.144 1.44,0.432c0.368,0.288 0.552,0.696 0.552,1.224c0,0.64 -0.208,1.148 -0.624,1.524c-0.416,0.376 -0.968,0.564 -1.656,0.564Zm4.032,-18.216c-0.368,0 -0.664,-0.092 -0.888,-0.276c-0.224,-0.184 -0.368,-0.524 -0.432,-1.02l-0.552,-4.248l-2.088,4.248c-0.24,0.496 -0.496,0.832 -0.768,1.008c-0.272,0.176 -0.576,0.264 -0.912,0.264c-0.336,0 -0.604,-0.076 -0.804,-0.228c-0.2,-0.152 -0.3,-0.372 -0.3,-0.66c0,-0.272 0.088,-0.56 0.264,-0.864l2.688,-4.632c0.288,-0.496 0.612,-0.868 0.972,-1.116c0.36,-0.248 0.788,-0.372 1.284,-0.372c0.48,0 0.856,0.144 1.128,0.432c0.272,0.288 0.48,0.744 0.624,1.368l1.056,4.32c0.048,0.192 0.072,0.368 0.072,0.528c0,0.4 -0.132,0.708 -0.396,0.924c-0.264,0.216 -0.58,0.324 -0.948,0.324Z"
              style="fill:#fff;fill-rule:nonzero;"/>
        <path d="M35.582,30.475c-0.608,0 -1.036,-0.32 -1.284,-0.96c-0.248,-0.64 -0.372,-1.664 -0.372,-3.072c0,-2.08 0.296,-4.056 0.888,-5.928c0.144,-0.464 0.38,-0.804 0.708,-1.02c0.328,-0.216 0.788,-0.324 1.38,-0.324c0.32,0 0.544,0.04 0.672,0.12c0.128,0.08 0.192,0.232 0.192,0.456c0,0.256 -0.12,0.832 -0.36,1.728c-0.16,0.64 -0.288,1.2 -0.384,1.68c-0.096,0.48 -0.176,1.072 -0.24,1.776c0.528,-1.376 1.12,-2.496 1.776,-3.36c0.656,-0.864 1.3,-1.48 1.932,-1.848c0.632,-0.368 1.212,-0.552 1.74,-0.552c0.512,0 0.9,0.132 1.164,0.396c0.264,0.264 0.396,0.652 0.396,1.164c0,0.416 -0.088,1.2 -0.264,2.352c-0.16,0.976 -0.288,1.9 -0.384,2.772c-0.096,0.872 -0.144,1.844 -0.144,2.916c0,0.608 -0.124,1.044 -0.372,1.308c-0.248,0.264 -0.652,0.396 -1.212,0.396c-0.528,0 -0.912,-0.136 -1.152,-0.408c-0.24,-0.272 -0.36,-0.68 -0.36,-1.224c0,-0.64 0.112,-1.696 0.336,-3.168c0.192,-1.28 0.288,-2.096 0.288,-2.448c0,-0.256 -0.088,-0.384 -0.264,-0.384c-0.208,0 -0.5,0.268 -0.876,0.804c-0.376,0.536 -0.76,1.244 -1.152,2.124c-0.392,0.88 -0.708,1.808 -0.948,2.784c-0.176,0.752 -0.38,1.26 -0.612,1.524c-0.232,0.264 -0.596,0.396 -1.092,0.396Z"
              style="fill:#fff;fill-rule:nonzero;"/>
        <path d="M63.734,23.059c0.048,-0.016 0.128,-0.024 0.24,-0.024c0.24,0 0.424,0.08 0.552,0.24c0.128,0.16 0.192,0.376 0.192,0.648c0,0.496 -0.096,0.884 -0.288,1.164c-0.192,0.28 -0.48,0.484 -0.864,0.612c-0.736,0.24 -1.52,0.36 -2.352,0.36c-0.704,0 -1.368,-0.096 -1.992,-0.288c-0.464,0.752 -0.976,1.528 -1.536,2.328c-0.64,0.912 -1.192,1.536 -1.656,1.872c-0.464,0.336 -0.992,0.504 -1.584,0.504c-0.656,0 -1.172,-0.256 -1.548,-0.768c-0.376,-0.512 -0.612,-1.32 -0.708,-2.424c-0.192,-2.24 -0.288,-4.2 -0.288,-5.88l0,-0.84c0.016,-0.528 0.16,-0.896 0.432,-1.104c0.272,-0.208 0.68,-0.312 1.224,-0.312c0.416,0 0.724,0.092 0.924,0.276c0.2,0.184 0.3,0.492 0.3,0.924c0,1.84 0.112,4.232 0.336,7.176c0.96,-1.424 1.68,-2.56 2.16,-3.408c-0.24,-0.464 -0.36,-1.016 -0.36,-1.656c0,-0.544 0.12,-1.072 0.36,-1.584c0.24,-0.512 0.568,-0.928 0.984,-1.248c0.416,-0.32 0.888,-0.48 1.416,-0.48c0.464,0 0.84,0.164 1.128,0.492c0.288,0.328 0.432,0.804 0.432,1.428c0,0.72 -0.192,1.544 -0.576,2.472c0.608,-0.032 1.416,-0.152 2.424,-0.36l0.648,-0.12Z"
              style="fill:#fff;fill-rule:nonzero;"/>
        <path d="M66.686,30.475c-0.944,0 -1.748,-0.236 -2.412,-0.708c-0.664,-0.472 -1.164,-1.092 -1.5,-1.86c-0.336,-0.768 -0.504,-1.592 -0.504,-2.472c0,-1.216 0.228,-2.3 0.684,-3.252c0.456,-0.952 1.076,-1.696 1.86,-2.232c0.784,-0.536 1.664,-0.804 2.64,-0.804c0.944,0 1.752,0.236 2.424,0.708c0.672,0.472 1.176,1.092 1.512,1.86c0.336,0.768 0.504,1.592 0.504,2.472c0,1.216 -0.232,2.3 -0.696,3.252c-0.464,0.952 -1.092,1.696 -1.884,2.232c-0.792,0.536 -1.668,0.804 -2.628,0.804Zm0.264,-2.592c0.544,0 1.004,-0.296 1.38,-0.888c0.376,-0.592 0.564,-1.456 0.564,-2.592c0,-0.88 -0.16,-1.544 -0.48,-1.992c-0.32,-0.448 -0.704,-0.672 -1.152,-0.672c-0.576,0 -1.052,0.292 -1.428,0.876c-0.376,0.584 -0.564,1.452 -0.564,2.604c0,0.912 0.16,1.584 0.48,2.016c0.32,0.432 0.72,0.648 1.2,0.648Zm3.504,-10.272c-0.368,0 -0.664,-0.092 -0.888,-0.276c-0.224,-0.184 -0.368,-0.524 -0.432,-1.02l-0.552,-4.248l-2.088,4.248c-0.24,0.496 -0.496,0.832 -0.768,1.008c-0.272,0.176 -0.576,0.264 -0.912,0.264c-0.336,0 -0.604,-0.076 -0.804,-0.228c-0.2,-0.152 -0.3,-0.372 -0.3,-0.66c0,-0.272 0.088,-0.56 0.264,-0.864l2.688,-4.632c0.288,-0.496 0.612,-0.868 0.972,-1.116c0.36,-0.248 0.788,-0.372 1.284,-0.372c0.48,0 0.856,0.144 1.128,0.432c0.272,0.288 0.48,0.744 0.624,1.368l1.056,4.32c0.048,0.192 0.072,0.368 0.072,0.528c0,0.4 -0.132,0.708 -0.396,0.924c-0.264,0.216 -0.58,0.324 -0.948,0.324Z"
              style="fill:#fff;fill-rule:nonzero;"/>
    </g>
</svg>